HIERARCHY
ROOT Hips
{
	OFFSET -3.958830 18.904000 13.208200
	CHANNELS 6 Xposition Yposition Zposition Zrotation Yrotation Xrotation 
	JOINT LHipJoint
	{
		OFFSET 0.000000 0.000000 0.000000
		CHANNELS 3 Zrotation Yrotation Xrotation
		JOINT LeftUpLeg
		{
			OFFSET 1.800000 -1.400000 0.085000
			CHANNELS 3 Zrotation Yrotation Xrotation
			JOINT LeftLeg
			{
				OFFSET 2.215000 -6.000000 0.000000
				CHANNELS 3 Zrotation Yrotation Xrotation
				JOINT LeftFoot
				{
					OFFSET 2.500000 -6.900000 0.000000
					CHANNELS 3 Zrotation Yrotation Xrotation
					JOINT LeftToeBase
					{
						OFFSET 0.200000 -0.500000 1.950000
						CHANNELS 3 Zrotation Yrotation Xrotation
						End Site
						{
							OFFSET 0.000000 0.000000 0.000000
						}
					}
				}
			}
		}
	}
	JOINT RHipJoint
	{
		OFFSET 0.000000 0.000000 0.000000
		CHANNELS 3 Zrotation Yrotation Xrotation
		JOINT RightUpLeg
		{
			OFFSET -1.800000 -1.400000 0.085000
			CHANNELS 3 Zrotation Yrotation Xrotation
			JOINT RightLeg
			{
				OFFSET -2.215000 -6.000000 0.000000
				CHANNELS 3 Zrotation Yrotation Xrotation
				JOINT RightFoot
				{
					OFFSET -2.500000 -6.900000 0.000000
					CHANNELS 3 Zrotation Yrotation Xrotation
					JOINT RightToeBase
					{
						OFFSET -0.200000 -0.500000 1.950000
						CHANNELS 3 Zrotation Yrotation Xrotation
						End Site
						{
							OFFSET 0.000000 0.000000 0.000000
						}
					}
				}
			}
		}
	}
	JOINT LowerBack
	{
		OFFSET 0.000000 0.000000 0.000000
		CHANNELS 3 Zrotation Yrotation Xrotation
		JOINT Spine
		{
			OFFSET -0.087000 1.940000 -0.288900
			CHANNELS 3 Zrotation Yrotation Xrotation
			JOINT Spine1
			{
				OFFSET 0.000000 1.950000 0.060000
				CHANNELS 3 Zrotation Yrotation Xrotation
				JOINT Neck
				{
					OFFSET 0.000000 0.000000 0.000000
					CHANNELS 3 Zrotation Yrotation Xrotation
					JOINT Neck1
					{
						OFFSET 0.000000 1.600000 0.340000
						CHANNELS 3 Zrotation Yrotation Xrotation
						JOINT Head
						{
							OFFSET 0.000000 1.667000 -0.240000
							CHANNELS 3 Zrotation Yrotation Xrotation
							End Site
							{
								OFFSET 0.000000 0.000000 0.000000
							}
						}
					}
				}
				JOINT LeftShoulder
				{
					OFFSET 0.000000 0.000000 0.000000
					CHANNELS 3 Zrotation Yrotation Xrotation
					JOINT LeftArm
					{
						OFFSET 2.700000 1.550000 -0.730000
						CHANNELS 3 Zrotation Yrotation Xrotation
						JOINT LeftForeArm
						{
							OFFSET 5.450000 0.000000 0.000000
							CHANNELS 3 Zrotation Yrotation Xrotation
							JOINT LeftHand
							{
								OFFSET 3.450000 0.000000 0.000000
								CHANNELS 3 Zrotation Yrotation Xrotation
								JOINT LeftHandIndex1
								{
									OFFSET 0.750000 0.000000 0.000000
									CHANNELS 3 Zrotation Yrotation Xrotation
									End Site
									{
										OFFSET 0.000000 0.000000 0.000000
									}
								}
							}
						}
					}
				}
				JOINT RightShoulder
				{
					OFFSET 0.000000 0.000000 0.000000
					CHANNELS 3 Zrotation Yrotation Xrotation
					JOINT RightArm
					{
						OFFSET -2.700000 1.550000 -0.730000
						CHANNELS 3 Zrotation Yrotation Xrotation
						JOINT RightForeArm
						{
							OFFSET -5.450000 0.000000 0.000000
							CHANNELS 3 Zrotation Yrotation Xrotation
							JOINT RightHand
							{
								OFFSET -3.450000 0.000000 0.000000
								CHANNELS 3 Zrotation Yrotation Xrotation
								JOINT RightHandIndex1
								{
									OFFSET -0.750000 0.000000 0.000000
									CHANNELS 3 Zrotation Yrotation Xrotation
									End Site
									{
										OFFSET 0.000000 0.000000 0.000000
									}
								}
							}
						}
					}
				}
			}
		}
	}
}
MOTION
Frames: 13
Frame Time: 0.016667
1.045290 17.610170 -0.808310 -4.364100 1.642115 0.659697 -14.883014 13.095726 2.905242 10.456323 -2.181811 -15.510883 -12.687034 8.889811 19.204765 -0.618200 5.917868 2.583141 -0.464250 -0.778370 -0.496160 18.592264 -10.177213 3.441032 4.547654 6.194670 -28.539471 3.960825 -4.808527 22.737174 0.222631 -2.980847 3.439720 -0.273190 0.891770 0.075150 -4.462057 -2.016792 -7.656326 15.423070 -5.461476 10.290221 -12.246226 -3.004384 5.550714 2.817040 -3.565577 -10.141862 -10.123536 7.285794 42.324276 0.115540 2.038930 3.773620 -19.785157 -12.776130 3.770567 -44.411809 -10.425216 -1.678499 2.696696 -18.213905 -2.031102 -4.270908 2.536565 0.483950 0.435360 -0.474180 0.001950 13.370427 13.309302 6.747458 66.248487 7.296901 -9.394356 18.051096 31.363006 1.409676 1.991387 -1.045441 -0.630400 0.523290 0.705410 -0.118180 
0.989250 17.598720 -0.792120 -3.916963 2.064151 0.723427 -14.963900 13.250351 2.870736 9.642235 -2.278115 -15.907507 -11.088689 8.591823 20.227755 -0.638287 5.799880 2.652688 -0.485450 -0.788820 -0.520150 18.487548 -10.178783 3.422683 2.834230 5.643935 -28.924594 5.431137 -4.493153 18.004239 0.322974 -2.541264 3.626637 -0.272230 0.935590 0.045420 -4.205996 -2.251283 -7.646840 12.820137 -4.847137 10.132757 -9.689499 -2.817103 5.714867 2.172387 -3.369864 -10.199815 -9.775904 7.002538 42.041828 0.543300 1.827620 4.267390 -18.285486 -13.147329 4.041910 -47.175061 -11.632341 -1.144155 2.549500 -18.400203 -2.094161 -4.282283 2.514029 0.460260 0.455810 -0.504730 0.014860 13.446852 13.849682 6.578691 64.991924 7.865896 -8.508741 14.753085 28.411915 0.625527 2.000303 -0.999773 -0.653300 0.562960 0.707470 -0.105200 
0.923430 17.607330 -0.771390 -3.123222 2.568868 0.950938 -15.087446 13.416336 2.838865 8.436743 -2.309441 -16.040492 -9.414459 8.029284 20.223426 -0.656371 5.552937 2.776330 -0.526240 -0.828620 -0.558050 18.339591 -10.160012 3.408503 0.406284 5.118192 -29.531894 6.916112 -4.368569 14.886539 0.397058 -2.366302 3.718497 -0.288820 0.987790 0.026300 -3.826438 -2.542292 -7.635645 9.205035 -3.941518 9.727995 -6.251108 -2.488867 5.802588 1.367229 -3.119028 -10.273626 -9.430945 6.475147 42.016577 0.907460 1.323120 5.593760 -16.945220 -13.461698 4.318526 -50.485257 -12.756159 -0.617672 1.958535 -18.860052 -2.113889 -4.300675 2.508274 0.420050 0.488330 -0.546100 0.023890 14.132318 14.429132 6.504573 63.123953 7.891878 -7.628481 11.557786 25.017252 0.042426 2.023614 -0.959097 -0.670390 0.583670 0.715970 -0.086220 
0.850990 17.628440 -0.742580 -2.819404 3.299998 1.424415 -15.188335 13.522542 2.782878 7.762095 -2.292162 -16.269054 -7.796671 7.387089 19.590937 -0.686932 5.284670 2.907872 -0.584240 -0.892800 -0.636280 18.229869 -10.121923 3.391299 -1.901240 4.656704 -29.791100 8.378458 -4.350401 12.533447 0.452420 -2.360411 3.751729 -0.318150 1.063820 0.021670 -3.538435 -2.765704 -7.567966 6.657295 -3.237090 8.820404 -3.316717 -2.265674 5.995466 0.587655 -3.161119 -10.372171 -9.587866 6.147789 41.368316 1.331750 0.633700 7.330950 -15.072309 -13.441345 4.574729 -54.368375 -13.782785 -0.152895 0.958258 -19.857734 -2.132950 -4.328046 2.538687 0.373770 0.535560 -0.608460 0.039000 14.148530 14.725829 6.533722 61.887603 7.524704 -6.987207 9.434102 21.910702 -0.255943 2.035561 -0.949163 -0.686990 0.591750 0.747940 -0.059450 
0.768480 17.653560 -0.710970 -2.722371 3.964525 2.351027 -15.290035 13.559947 2.737182 7.511932 -2.279813 -16.692319 -6.783405 6.814553 18.093108 -0.748541 5.062542 3.030546 -0.691560 -1.015040 -0.763580 18.142957 -10.028941 3.367826 -3.704486 4.392135 -30.266034 9.245880 -4.345860 11.223056 0.525837 -2.422665 3.754950 -0.356690 1.192050 0.014300 -3.274937 -2.981554 -7.443615 4.273867 -2.687686 7.364570 -0.348142 -2.194529 6.102205 -0.357090 -3.380584 -10.159718 -9.851237 6.145278 39.728014 2.112200 -0.161490 9.178960 -12.573042 -12.373572 4.616726 -59.251751 -14.686491 0.352001 -0.530667 -21.191870 -2.150818 -4.394380 2.562696 0.326380 0.607590 -0.707120 0.045010 13.829473 13.997803 6.179796 60.995095 7.306567 -6.119522 8.326127 18.407929 -0.328746 2.049227 -0.927369 -0.742270 0.622950 0.826580 -0.028410 
0.683050 17.690200 -0.683840 -2.948333 5.054562 3.504563 -15.366494 13.534076 2.689901 7.525810 -2.359077 -17.585326 -5.691900 6.232630 16.585400 -0.740547 4.763426 3.203519 -0.748260 -1.049360 -0.845000 18.087909 -9.945325 3.361424 -5.279115 4.202171 -30.780859 10.345248 -4.424660 10.407465 0.574635 -2.540088 3.771236 -0.373810 1.295690 -0.011480 -3.097338 -3.071726 -7.312439 2.413134 -2.384091 5.940630 2.486989 -2.330612 6.135052 -1.192199 -3.197601 -9.662276 -9.126777 5.367646 37.544730 1.908840 -0.670770 10.904480 -10.113129 -10.653919 4.507019 -64.202618 -15.473646 0.745568 -2.701896 -22.719001 -1.945557 -4.436918 2.603103 0.225860 0.681540 -0.788530 0.083270 13.240084 12.321811 5.425794 60.667101 7.092062 -5.420024 7.181791 15.265270 -0.458768 2.086980 -0.945094 -0.753800 0.653340 0.826540 0.022290 
0.599560 17.734590 -0.665240 -3.216673 6.101444 4.569763 -15.423949 13.508945 2.663337 7.395787 -2.441565 -18.253894 -4.658685 5.613936 14.720286 -0.741098 4.449398 3.358492 -0.771370 -1.053470 -0.910690 18.050483 -9.858747 3.350751 -6.751971 3.996987 -31.069224 11.439604 -4.554596 9.924075 0.599416 -2.680399 3.753664 -0.370570 1.360260 -0.029200 -2.969672 -3.188256 -7.199849 0.972190 -2.191116 4.804542 4.964049 -2.448175 6.064010 -2.029653 -3.267667 -9.175042 -9.009326 5.080930 35.742838 2.313630 -1.297850 11.975950 -8.300134 -8.662341 4.377773 -68.654266 -15.772331 0.871425 -5.122138 -24.586764 -1.681335 -4.446077 2.679524 0.148260 0.722760 -0.846220 0.121160 13.242025 10.497305 4.637291 59.830026 6.580929 -5.066736 6.458636 12.721614 -0.529206 2.124478 -0.969634 -0.753110 0.663810 0.818640 0.064730 
0.521030 17.776180 -0.654010 -3.548817 7.114758 5.581115 -15.464466 13.466593 2.657449 7.197108 -2.573353 -18.930889 -3.830366 5.111123 13.198309 -0.737163 4.197219 3.468880 -0.758620 -1.033280 -0.925750 18.030029 -9.781817 3.338331 -8.027752 3.818932 -31.272265 12.506262 -4.782791 9.889167 0.591503 -2.843651 3.695436 -0.363640 1.378160 -0.016860 -2.888534 -3.272063 -7.105277 -0.015585 -2.061475 3.820409 6.939280 -2.557703 6.158140 -2.616734 -3.330828 -8.770466 -8.902756 4.654141 34.171111 2.086860 -1.619970 12.385180 -6.638832 -6.741735 4.365133 -72.480488 -15.621577 0.663564 -8.483146 -26.789130 -1.164414 -4.435552 2.792305 0.093570 0.743560 -0.869240 0.146750 12.832758 8.749115 3.888554 59.549207 6.147165 -4.953349 5.918418 10.679309 -0.593807 2.161136 -1.012623 -0.727050 0.639630 0.797150 0.089660 
0.440510 17.818140 -0.641610 -3.873943 7.760896 6.426846 -15.486256 13.423085 2.662720 7.111217 -2.638160 -19.209653 -3.403034 4.710940 11.460085 -0.750261 4.036181 3.539154 -0.763710 -1.030370 -1.002730 18.029272 -9.715016 3.300666 -8.998916 3.673469 -31.247554 13.326366 -5.058688 10.253477 0.598609 -3.033575 3.628565 -0.351140 1.431240 -0.003130 -2.856601 -3.356220 -7.003696 -0.588736 -1.895534 2.915998 8.393153 -2.528894 6.308338 -3.330545 -3.780154 -8.332220 -9.487489 4.833792 32.482711 2.990460 -2.590170 12.675040 -5.305810 -4.717495 4.348744 -75.870972 -15.057307 0.295338 -11.035107 -28.410717 -0.752173 -4.437401 2.907918 0.044850 0.771170 -0.919570 0.174220 12.932635 7.166988 3.157714 58.831698 5.761053 -4.802362 5.853304 8.504608 -0.614618 2.179823 -1.049874 -0.716070 0.624630 0.815850 0.127480 
0.372770 17.847610 -0.631160 -4.029805 8.111765 7.281538 -15.501049 13.378702 2.694160 6.759956 -2.706682 -19.385802 -3.357054 4.407167 9.717298 -0.748815 3.937975 3.617488 -0.792210 -1.042110 -1.109610 18.036243 -9.659437 3.233732 -9.900949 3.465328 -31.162837 13.729064 -5.327946 10.875840 0.612476 -3.221672 3.574419 -0.337980 1.523360 -0.001630 -2.842146 -3.448987 -6.901037 -0.941361 -1.816175 2.119234 9.495847 -2.519507 6.418639 -4.000767 -4.286606 -7.867416 -10.047092 5.141417 30.286867 3.593380 -3.327800 13.216610 -4.576018 -2.663632 4.335139 -78.514211 -13.920735 -0.472041 -13.982705 -30.072410 -0.120912 -4.452523 2.998654 -0.016230 0.816050 -0.983660 0.225600 13.501176 5.589700 2.467200 57.819199 5.031668 -5.024422 5.694497 7.319161 -0.696365 2.182497 -1.086025 -0.728500 0.643030 0.836690 0.179960 
0.313200 17.857530 -0.618760 -4.118929 8.694566 8.096372 -15.509696 13.320245 2.747832 6.375019 -2.783212 -19.490275 -3.694867 4.207866 7.952253 -0.755393 3.910288 3.683774 -0.845900 -1.091670 -1.183240 18.047017 -9.635349 3.136231 -10.623453 3.194278 -30.808758 13.754291 -5.553295 11.441212 0.654699 -3.380263 3.555544 -0.339460 1.621470 -0.017460 -2.843779 -3.489509 -6.803989 -1.129517 -1.781753 1.390027 10.266529 -2.503101 6.537519 -4.445238 -4.350668 -7.312613 -9.751760 4.870532 28.189590 3.160740 -3.636800 13.917730 -3.810680 -0.343370 4.271935 -81.185386 -12.620886 -1.232853 -17.186000 -31.733552 0.743205 -4.503545 3.027181 -0.082380 0.886200 -1.067090 0.245620 13.553061 3.436201 1.635871 57.608820 4.188954 -5.540149 5.725166 7.223662 -0.827153 2.163755 -1.097900 -0.764970 0.678760 0.864940 0.205920 
0.251750 17.861880 -0.609760 -4.314579 9.144089 8.653608 -15.510477 13.275570 2.806712 6.373669 -2.844145 -19.625223 -4.315015 4.152027 6.826285 -0.722939 3.917575 3.696755 -0.862740 -1.095010 -1.233570 18.054426 -9.653368 3.030047 -10.979716 2.973248 -30.155039 13.443271 -5.681741 11.962249 0.671734 -3.479210 3.530688 -0.338980 1.668270 -0.002150 -2.852659 -3.483162 -6.736248 -1.166073 -1.694380 0.981798 10.945864 -2.452779 6.594454 -4.793071 -4.302413 -6.868191 -9.405510 4.658517 26.922539 3.246860 -4.096110 14.125690 -3.578289 1.500123 4.278809 -83.024637 -11.016762 -2.258426 -20.807606 -33.119581 1.838002 -4.522973 3.087967 -0.141080 0.922510 -1.103760 0.259780 13.969742 1.714087 0.943373 56.907453 3.372347 -5.959139 5.992992 7.135399 -0.906071 2.165695 -1.119486 -0.748440 0.670110 0.876720 0.239770 
0.194670 17.850720 -0.595210 -4.379294 9.442258 9.044277 -15.505131 13.263529 2.836272 6.223860 -2.836683 -19.509484 -4.531077 4.072366 6.023383 -0.754578 3.961992 3.694345 -0.889750 -1.126340 -1.262920 18.064464 -9.708359 2.910312 -11.320191 2.726435 -29.329937 12.881467 -5.810508 12.577461 0.695839 -3.579522 3.498456 -0.331300 1.712940 0.014070 -2.876909 -3.458159 -6.646362 -0.853920 -1.623575 0.688091 11.054635 -2.328194 6.558263 -4.958602 -4.181988 -6.140380 -8.971633 4.067259 25.703213 2.445130 -4.364340 13.934470 -4.129874 3.888831 3.943403 -83.557044 -8.973917 -3.276951 -24.920467 -34.276522 3.285173 -4.582691 3.087252 -0.171220 0.971710 -1.145760 0.250740 14.757904 -0.567415 0.090977 56.128376 2.263916 -6.653485 6.117570 8.129983 -1.013701 2.123944 -1.120249 -0.766340 0.676500 0.911520 0.240030 
